<svg id="Layer_1" enable-background="new 0 0 512.132 512.132" height="512" viewBox="0 0 512.132 512.132" width="512" xmlns="http://www.w3.org/2000/svg"><path d="m426.192 206.462c-12.146 96.931-10.14 154.281-10.14 257.67 0 26.47-21.53 48-48 48h-224c-26.47 0-48-21.53-48-48 0-93.298 1.881-150.984-7.99-239.45-4.9-43.462-5.605-36.711 13.8 90.93 6.142 40.426 27.719 75.598 57.92 99.27 93.725 73.119 232.446 19.251 250.46-99.26 7.86-51.69 13.23-88.39 15.95-109.16z" fill="#8bc4ff"/><path d="m463.532 20.172c-9.66 33.831-23.549 94.946-30.77 140.81-5.046 29.744-4.223 34.314-22.52 154.64-9.19 60.462-53.302 111.133-114.19 127.28-89.143 23.73-180.169-35.004-194.19-127.29-18.03-118.597-25.006-196.382-53.29-295.44-2.374-9.108 3.786-17.982 11.53-19.53 2.809-.766-23.514-.51 387.95-.51 10.714 0 18.066 10.117 15.48 20.04z" fill="#b9dcff"/><path d="m384.052.132c-342.495 0-321.806-.783-327.05 1.64-7.13 3.483-10.376 11.584-8.39 18.54 32.36 124.191 28.876 134.977 53.25 295.3 11.594 76.307 77.279 132.52 154.19 132.52 34.676 0 68.545-11.609 96-33.04 0-147.066 5.175-232.752 47.48-394.92 2.646-10.161-5.041-20.04-15.48-20.04z" fill="#e8f3ff"/><path d="m340.712 6.352c-3.03-3.92-7.7-6.22-12.66-6.22-289.384 0-265.718-.823-271.05 1.64-7.13 3.483-10.376 11.584-8.39 18.54 32.36 124.191 28.876 134.977 53.25 295.3 13.982 92.028 104.939 151.049 194.19 127.29 0-93.572-2.921-188.677 24.88-327.18 18.883-94.932 28.614-97.942 19.78-109.37z" fill="#d1e7ff"/><path d="m463.202 10.992c-1.713-5.077-6.187-9.602-12.67-10.64-1.936-.283-386.958-.578-390.43.29-7.432 1.485-13.71 9.86-11.63 19.03 2.435 9.731 5.54 20.985 9.49 36.88 42.4 170.311 38.09 289.521 38.09 407.58 0 26.47 21.53 48 48 48h224c26.47 0 48-21.53 48-48 0-99.049-5.447-230.5 36.33-400.39 11.094-45.786 13.239-45.544 10.82-52.75zm-35.86 21.14c-26.447 100.07-31.159 163.21-48.74 278.68-7.037 46.401-38.866 84.147-82.55 98.82-71.749 24.164-150.641-20.414-162.55-98.83-17.581-115.447-22.315-178.685-48.74-278.67zm-43.29 432c0 8.82-7.18 16-16 16h-224c-8.82 0-16-7.18-16-16v-82.87c61.589 88.521 193.712 89.525 256 0z" fill="#2e58ff"/><path d="m85.081 200.094c.023.177.048.354.071.532-.022-.177-.047-.355-.071-.532z"/><path d="m71.172 115.722c1.09 5.49 2.15 10.97 3.17 16.47-1.02-5.5-2.07-10.99-3.17-16.47zm366.59 16.47c1.02-5.5 2.08-10.98 3.17-16.47-1.1 5.48-2.15 10.97-3.17 16.47z"/></svg>